<?xml version="1.0" encoding="utf-8"?>
<!-- Generator: Adobe Illustrator 19.0.0, SVG Export Plug-In . SVG Version: 6.00 Build 0)  -->
<svg version="1.1" id="图层_1" xmlns="http://www.w3.org/2000/svg" xmlns:xlink="http://www.w3.org/1999/xlink" x="0px" y="0px"
	 viewBox="-455 245 512 512" style="enable-background:new -455 245 512 512;" xml:space="preserve">
<g id="XMLID_3_">
</g>
<g id="XMLID_6_">
</g>
<g id="XMLID_331_">
	<g id="XMLID_307_">
		<g id="XMLID_427_">
			<path d="M-193.6,750.6c-8.3,0-14.7-6.4-14.7-14.7V599c0-8.3,6.4-14.7,14.7-14.7s14.7,6.4,14.7,14.7V736
				C-179,744.3-185.3,750.6-193.6,750.6z"/>
		</g>
	</g>
	<g id="XMLID_318_">
		<g id="XMLID_424_">
			<path d="M-66.5,391.7h-259.2v-17.6c0-70.9,58.2-129.1,129.6-129.1s129.6,58.2,129.6,129.1V391.7z M-297.8,362.4h197.6
				c-7.3-48.9-48.9-85.1-98.8-85.1S-290.9,313.5-297.8,362.4z"/>
		</g>
	</g>
	<g id="XMLID_317_">
		<g id="XMLID_421_">
			<path d="M-185.3,757h-32.8c-83.6,0-151.6-68-151.6-151.6V411.3h336.4v194.1C-33.7,689-101.7,757-185.3,757z M-340.3,440.6v164.8
				c0,67.5,54.8,122.3,122.3,122.3h32.8c67.5,0,122.3-54.8,122.3-122.3V440.6H-340.3z"/>
		</g>
	</g>
	<g id="XMLID_316_">
		<g id="XMLID_420_">
			<path d="M-350.6,438.2c-3.9,0-7.8-1.5-10.8-4.4l-39.1-41.1c-5.4-5.9-5.4-15.2,0.5-20.5s15.2-5.4,20.5,0.5l39.1,41.1
				c5.4,5.9,5.4,15.2-0.5,20.5C-343.3,436.7-346.7,438.2-350.6,438.2z"/>
		</g>
	</g>
	<g id="XMLID_325_">
		<g id="XMLID_315_">
			<g id="XMLID_419_">
				<path d="M-366.2,751.1c-3.4,0-7.3-1.5-10.3-3.9c-5.9-5.4-6.4-14.7-0.5-20.5l39.1-41.1c5.4-5.9,14.7-6.4,20.5-0.5
					c5.9,5.4,6.4,14.7,0.5,20.5l-39.1,41.1C-358.4,749.7-362.3,751.1-366.2,751.1z"/>
			</g>
		</g>
		<g id="XMLID_324_">
			<g id="XMLID_418_">
				<path d="M-32.2,751.1c-3.9,0-7.8-1.5-10.8-4.4l-39.1-41.1c-5.4-5.9-5.4-15.2,0.5-20.5c5.9-5.4,15.2-5.4,20.5,0.5l39.1,41.1
					c5.4,5.9,5.4,15.2-0.5,20.5C-25.4,749.7-28.8,751.1-32.2,751.1z"/>
			</g>
		</g>
	</g>
	<g id="XMLID_314_">
		<g id="XMLID_417_">
			<path d="M-47.9,438.2c-3.4,0-7.3-1.5-10.3-3.9c-5.9-5.4-6.4-14.7-0.5-20.5l39.1-41.1c5.4-5.9,14.7-6.4,20.5-0.5
				c5.9,5.4,6.4,14.7,0.5,20.5l-39.1,41.1C-40.1,436.7-44,438.2-47.9,438.2z"/>
		</g>
	</g>
	<g id="XMLID_303_">
		<g id="XMLID_306_">
			<g id="XMLID_416_">
				<path d="M-357.9,577.5h-63.6c-8.3,0-14.7-6.4-14.7-14.7c0-8.3,6.4-14.7,14.7-14.7h63.6c8.3,0,14.7,6.4,14.7,14.7
					C-343.3,571.2-350.1,577.5-357.9,577.5z"/>
			</g>
		</g>
		<g id="XMLID_323_">
			<g id="XMLID_414_">
				<path d="M23.5,577.5h-63.6c-8.3,0-14.7-6.4-14.7-14.7c0-8.3,6.4-14.7,14.7-14.7h63.6c8.3,0,14.7,6.4,14.7,14.7
					C38.2,571.2,31.3,577.5,23.5,577.5z"/>
			</g>
		</g>
	</g>
</g>
</svg>
