<?xml version="1.0" encoding="utf-8"?>
<!-- Generator: Adobe Illustrator 19.0.0, SVG Export Plug-In . SVG Version: 6.00 Build 0)  -->
<svg version="1.1" id="图层_1" xmlns="http://www.w3.org/2000/svg" xmlns:xlink="http://www.w3.org/1999/xlink" x="0px" y="0px"
	 viewBox="-555 245 512 512" style="enable-background:new -555 245 512 512;" xml:space="preserve">
<g>
	<path d="M-63.1,401.6c-12.9-30.4-31.5-58-54.9-81.3c-48-48-113.1-75-180.9-75h-15.2v105.3c0,8.4,6.8,15.1,15.2,15.1
		c8.4,0,15.1-6.8,15.1-15.1v-74.6c56.1,3.7,108.7,28.3,147.6,68.9c40.5,41.8,63,97.8,63,156c0,124.3-101.2,225.4-225.7,225.4
		c-124.4,0-225.7-101.1-225.7-225.4c0-60.2,23.4-116.8,66-159.3c5.9-5.9,5.9-15.5,0-21.4c-2.8-2.8-6.7-4.4-10.7-4.4
		c-4,0-7.9,1.6-10.7,4.5c-48.1,47.8-75.1,112.9-74.9,180.7c0,140.9,114.9,255.6,256,255.6C-157.8,756.6-43,642-43,501
		C-43,466.5-49.8,433.1-63.1,401.6z"/>
	<path d="M-323.9,525.9c6.9,6.9,15.9,10.3,24.9,10.3c19.4,0.1,35.2-15.6,35.3-35c0-9.4-3.7-18.4-10.3-25
		c-11.9-11.9-142.3-101.2-147.8-105l-22.6-15.5l15.5,22.6C-425.2,383.8-335.8,513.9-323.9,525.9L-323.9,525.9z"/>
</g>
</svg>
