<?xml version="1.0" encoding="utf-8"?>
<!-- Generator: Adobe Illustrator 19.0.0, SVG Export Plug-In . SVG Version: 6.00 Build 0)  -->
<svg version="1.1" id="图层_1" xmlns="http://www.w3.org/2000/svg" xmlns:xlink="http://www.w3.org/1999/xlink" x="0px" y="0px"
	 viewBox="-243 245 512 512" style="enable-background:new -243 245 512 512;" xml:space="preserve">
<style type="text/css">
	.st0{fill:#272636;}
</style>
<g id="XMLID_6_">
	<path id="XMLID_7_" class="st0" d="M268.5,527.8L193.6,426l74.9-108.8l0,0c0-1.3,1.3-3.9,1.3-6.6c0-7.9-5.3-13.1-13.1-13.1h-197
		v-39.4c0-7.9-5.3-13.1-13.1-13.1h-276.4c-7.9,0-13.1,5.3-13.1,5.1v484.7c0,15.9,5.3,21.1,13.1,21.1c7.9,0,13.1-5.3,13.1-13.1V497.9
		h197.6v36.4c0,7.9,5.3,13.1,13.1,13.1h262.7c7.9,0,13.1-5.3,13.1-13.1C269.8,531.7,268.5,529.1,268.5,527.8L268.5,527.8
		L268.5,527.8z M-216.7,471.7V271.3H33.4v200.4H-216.7L-216.7,471.7z M7.1,521.2v-23.3h39.4c7.9,0,13.1-5.3,13.1-13.1v-161H233
		l-67,95.6l0,0c0,1.3-1.3,3.9-1.3,6.6s1.3,5.3,2.6,6.6l0,0l67,88.6H7.1L7.1,521.2z"/>
</g>
</svg>
