<?xml version="1.0" encoding="iso-8859-1"?>
<!-- Generator: Adobe Illustrator 19.0.0, SVG Export Plug-In . SVG Version: 6.00 Build 0)  -->
<svg version="1.1" id="&#x56FE;&#x5C42;_1" xmlns="http://www.w3.org/2000/svg" xmlns:xlink="http://www.w3.org/1999/xlink" x="0px"
	 y="0px" viewBox="0 0 512 512" style="enable-background:new 0 0 512 512;" xml:space="preserve">
<path id="XMLID_17_" d="M379.988,378.91c-10.765,19.948-19.121,34.012-33.398,47.463h-0.318h0.318
	c-27.226,25.379-65.008,41.255-106.338,41.255h-33.546c-41.185,0-78.635-15.873-105.858-41.255
	c-27.24-25.395-44.255-60.309-44.255-98.844v-84.483c0-12.087,10.045-21.465,23.008-21.465l0,0l0,0l0,0h0.496h287.575
	c12.316,0,22.209,8.915,22.857,19.947L390.528,328C390.528,328,389.833,360.667,379.988,378.91z M207.351,192.564L207.351,192.564
	c3.071,6.655-0.332,14.205-7.469,16.621c-6.641,2.876-14.908-0.293-17.662-6.641c-3.569-8.17-6.326-16.621-8.435-25.393
	c-1.939-8.761-2.921-17.533-2.921-26.601c0-8.761,0.983-17.829,2.921-26.448c1.794-8.605,4.866-17.227,8.435-25.383
	c2.754-6.498,11.024-9.517,17.662-6.808c7.137,2.724,10.541,10.137,7.469,16.635c-2.921,6.345-5.029,13.293-6.819,20.553
	c-1.446,6.793-2.109,14.051-2.109,21.45c0,7.564,0.664,14.81,2.109,21.618C201.991,179.116,204.262,186.066,207.351,192.564
	L207.351,192.564L207.351,192.564L207.351,192.564z M261.161,190.564L261.161,190.564c2.447,5.307-0.265,11.326-5.956,13.251
	c-5.294,2.296-11.883-0.231-14.079-5.293c-2.846-6.512-5.042-13.251-6.724-20.245c-1.549-6.983-2.33-13.978-2.33-21.208
	c0-6.984,0.781-14.213,2.33-21.085c1.429-6.861,3.878-13.733,6.724-20.237c2.196-5.179,8.788-7.586,14.079-5.426
	c5.691,2.171,8.403,8.08,5.956,13.261c-2.329,5.058-4.009,10.597-5.438,16.387c-1.152,5.416-1.682,11.202-1.682,17.1
	c0,6.032,0.53,11.805,1.682,17.235C256.887,179.842,258.697,185.383,261.161,190.564L261.161,190.564L261.161,190.564
	L261.161,190.564z M161.14,192.564L161.14,192.564c-2.907-6.501-5.184-13.448-6.808-20.396c-1.462-6.811-2.106-14.054-2.106-21.621
	c0-7.396,0.644-14.654,2.106-21.448c1.624-7.26,3.901-14.208,6.808-20.553c3.731-8.172,6.49-16.484,8.429-25.103
	c1.945-8.912,2.759-17.829,2.759-26.895c0-8.607-0.814-17.829-2.759-26.448c-1.939-8.608-4.693-14.226-8.429-22.243
	c-2.907-6.498-11.023-9.671-17.829-6.794c-6.808,2.724-10.209,10.279-7.137,16.778c2.921,6.657,5.028,10.295,6.819,17.243
	c1.294,6.811,2.112,14.068,2.112,21.464c0,7.551-0.818,14.813-2.112,21.621c-1.791,7.103-3.898,13.898-6.819,20.549
	c-3.554,8.158-6.641,16.778-8.418,25.383c-2.106,8.621-2.921,17.686-2.921,26.448c0,9.068,0.815,17.843,2.921,26.604
	c1.777,8.775,4.864,17.221,8.418,25.396c2.921,6.342,10.708,9.517,17.678,6.638C160.66,206.772,164.226,199.219,161.14,192.564
	L161.14,192.564L161.14,192.564L161.14,192.564z M37.291,509.941L37.291,509.941c-7.453,0-13.613-5.446-13.613-12.689
	c0-7.104,6.161-11.706,13.613-11.706h372.527c7.62,0,13.945,4.602,13.945,11.706c0,7.243-6.325,12.689-13.945,12.689H37.291
	L37.291,509.941L37.291,509.941L37.291,509.941z M363.97,246.629L363.97,246.629H83.301v78.241
	c0,30.923,13.686,59.079,35.632,79.516c21.939,20.46,52.313,37.041,85.122,37.041h38.797c33.191,0,63.369-16.581,85.484-37.041
	v0.179c21.752-20.619,35.633-48.772,35.633-79.698v-73.238l0,0l0,0V246.629z M363.97,251.629"/>
<g id="XMLID_3_">
	<path id="XMLID_6_" d="M373.767,246.629h43.963c37.597,0,68.185,30.588,68.185,68.186
		S455.326,383,417.73,383h-43.963 M373.767,363h43.963c26.569,0,48.185-21.616,48.185-48.186s-21.615-48.186-48.185-48.186h-43.963"
		/>
</g>
</svg>
