<?xml version="1.0" encoding="iso-8859-1"?>
<!-- Generator: Adobe Illustrator 19.0.0, SVG Export Plug-In . SVG Version: 6.00 Build 0)  -->
<svg version="1.1" id="&#x56FE;&#x5C42;_1" xmlns="http://www.w3.org/2000/svg" xmlns:xlink="http://www.w3.org/1999/xlink" x="0px"
	 y="0px" viewBox="0 0 512 512" style="enable-background:new 0 0 512 512;" xml:space="preserve">
<g id="XMLID_6_">
	<path id="XMLID_7_" style="fill:#272636;" d="M511.464,282.751l-74.854-101.76L511.464,72.23l0,0c0-1.314,1.314-3.941,1.314-6.568
		c0-7.879-5.251-13.133-13.132-13.133H302.654V13.132C302.654,5.254,297.403,0,289.522,0H13.132C5.254,0,0,5.254,0,5.132v484.736
		C0,505.746,5.254,511,13.132,511c7.882,0,13.133-5.254,13.133-13.132V252.919h197.594v36.401c0,7.878,5.254,13.132,13.132,13.132
		h262.654c7.881,0,13.132-5.254,13.132-13.132C512.778,286.693,511.464,284.065,511.464,282.751L511.464,282.751L511.464,282.751z
		 M26.265,226.654V26.264h250.124v200.39H26.265L26.265,226.654z M250.124,276.187v-23.268h39.398
		c7.881,0,13.132-5.251,13.132-13.132V78.795h173.353l-66.976,95.628l0,0c0,1.314-1.314,3.941-1.314,6.568
		c0,2.627,1.314,5.254,2.627,6.568l0,0l66.976,88.628H250.124L250.124,276.187z M250.124,276.187"/>
</g>
</svg>
