<?xml version="1.0" encoding="iso-8859-1"?>
<!-- Generator: Adobe Illustrator 19.0.0, SVG Export Plug-In . SVG Version: 6.00 Build 0)  -->
<svg version="1.1" id="&#x56FE;&#x5C42;_1" xmlns="http://www.w3.org/2000/svg" xmlns:xlink="http://www.w3.org/1999/xlink" x="0px"
	 y="0px" viewBox="0 0 512 512" style="enable-background:new 0 0 512 512;" xml:space="preserve">
<g id="XMLID_4_">
	<g id="XMLID_3_">
		<g id="XMLID_5_">
			<path id="XMLID_25_" d="M149.643,250.318c0,3.47-1.342,6.54-3.998,9.196l-63.57,63.57l63.57,63.57
				c1.599,1.599,2.742,3.541,3.398,5.797c0.657,2.27,0.657,4.469,0,6.597c-0.657,2.142-1.799,3.998-3.398,5.597
				s-3.456,2.742-5.597,3.398c-2.142,0.671-4.341,0.671-6.597,0c-2.256-0.657-4.198-1.799-5.797-3.398l-72.765-72.766
				c-2.399-2.399-3.598-5.397-3.598-8.996s1.199-6.597,3.598-8.996l72.765-72.366c2.399-2.656,5.397-3.998,8.996-3.998
				c3.598,0,6.597,1.342,8.996,3.998C148.301,243.921,149.643,246.862,149.643,250.318z M321.162,168.157
				c-2.142,0.143-4.198,0.8-6.197,1.999s-3.541,2.87-4.598,4.998L162.037,456.22c-1.599,3.198-1.856,6.468-0.8,9.795
				c1.057,3.341,3.056,5.94,5.997,7.796c3.198,1.599,6.454,1.856,9.795,0.8c3.341-1.057,5.94-3.198,7.796-6.397l148.33-281.466
				c1.599-2.927,1.856-6.126,0.8-9.595c-1.057-3.456-3.198-5.997-6.397-7.596C325.417,168.5,323.304,168.028,321.162,168.157z
				 M362.342,250.318c0,3.47,1.342,6.54,3.998,9.196l63.57,63.57l-63.57,63.57c-2.656,2.399-3.998,5.397-3.998,8.996
				c0,3.598,1.342,6.597,3.998,8.996c2.399,2.67,5.397,3.998,8.996,3.998s6.597-1.328,8.996-3.998l72.765-72.766
				c1.599-1.599,2.656-3.456,3.198-5.597c0.543-2.128,0.543-4.327,0-6.597c-0.543-2.256-1.599-4.198-3.198-5.797l-72.765-72.366
				c-2.399-2.656-5.397-3.998-8.996-3.998s-6.597,1.342-8.996,3.998C363.685,243.921,362.342,246.862,362.342,250.318z"/>
		</g>
	</g>
	<g id="XMLID_1_">
		<g id="XMLID_9_">
			<rect id="XMLID_13_" x="11.688" y="131.717" width="488.616" height="23.452"/>
		</g>
	</g>
	<g id="XMLID_2_">
		<path id="XMLID_10_" d="M471.062,512H40.938C18.363,512,0,493.637,0,471.062V40.938C0,18.363,18.363,0,40.938,0h430.125
			C493.637,0,512,18.363,512,40.938v430.125C512,493.637,493.637,512,471.062,512z M40.938,23.389
			c-9.681,0-17.549,7.868-17.549,17.549v430.125c0,9.681,7.868,17.549,17.549,17.549h430.125c9.681,0,17.549-7.868,17.549-17.549
			V40.938c0-9.681-7.868-17.549-17.549-17.549H40.938z"/>
	</g>
</g>
</svg>
