<?xml version="1.0" encoding="iso-8859-1"?>
<!-- Generator: Adobe Illustrator 22.1.0, SVG Export Plug-In . SVG Version: 6.00 Build 0)  -->
<svg version="1.1" id="&#x56FE;&#x5C42;_1" xmlns="http://www.w3.org/2000/svg" xmlns:xlink="http://www.w3.org/1999/xlink" x="0px"
	 y="0px" viewBox="0 0 120 120" style="enable-background:new 0 0 120 120;" xml:space="preserve">
<g>
	<path style="fill:#FFFFFF;" d="M60,0C26.863,0,0,26.863,0,60s26.863,60,60,60s60-26.863,60-60S93.137,0,60,0z M60,112.2
		C31.171,112.2,7.8,88.829,7.8,60S31.171,7.8,60,7.8s52.2,23.371,52.2,52.2S88.829,112.2,60,112.2z"/>
	<polygon style="fill:#FFFFFF;" points="60.013,20.862 71.302,27.38 71.302,54.351 82.592,54.351 82.592,33.898 93.895,40.431 
		93.895,79.569 82.592,86.095 82.592,65.641 71.302,65.641 71.302,92.613 60.013,99.138 60.013,33.764 48.71,40.298 48.71,92.62 
		37.42,86.102 37.42,46.825 26.105,53.366 26.105,40.431 	"/>
</g>
</svg>
