<?xml version="1.0" encoding="UTF-8" standalone="no"?>
<svg width="120px" height="21px" viewBox="0 0 120 21" version="1.1" xmlns="http://www.w3.org/2000/svg" xmlns:xlink="http://www.w3.org/1999/xlink">
    <!-- Generator: Sketch 39 (31667) - http://www.bohemiancoding.com/sketch -->
    <title>Page 1</title>
    <desc>Created with Sketch.</desc>
    <defs>
        <polygon id="path-1" points="18.2594247 19.6047992 18.2594247 0.585914491 0.456691993 0.585914491 0.456691993 19.6047992"></polygon>
        <polygon id="path-3" points="1.72117092e-20 0.161607498 1.72117092e-20 3.00958245 13.8281408 3.00958245 13.8281408 0.161607498 0 0.161607498"></polygon>
    </defs>
    <g id="Page-1" stroke="none" stroke-width="1" fill="none" fill-rule="evenodd">
        <g id="login" transform="translate(-392.000000, -426.000000)">
            <g id="Page-1" transform="translate(392.000000, 426.000000)">
                <polygon id="Fill-1" fill="#8692AD" points="24.7503946 20.2664057 27.5990046 20.2664057 27.5990046 1.20180098 24.7503946 1.20180098"></polygon>
                <g id="Group-26" transform="translate(0.000000, 0.613791)">
                    <path d="M75.5147704,14.1617698 C75.5147704,17.4694847 73.5018204,19.6049897 68.2427505,19.6049897 L57.0534156,19.5541897 L57.0534156,16.8579797 L68.3437155,16.8579797 C69.8283455,16.8579797 71.0754854,16.5906448 71.6482554,16.2477448 C72.2216604,15.9048448 72.8687254,15.2812748 72.8687254,13.7045698 C72.8687254,12.2199398 71.1764504,11.0597948 69.0028455,11.0597948 L64.5781655,11.0597948 C60.0525206,11.0597948 57.0534156,9.52372986 57.0534156,5.51751492 C57.0534156,3.68553994 58.2351506,2.47840496 59.9515556,1.44970498 C61.2075856,0.763269989 62.2889906,0.589914991 64.1209655,0.589914991 L74.0390304,0.589914991 L74.0891954,3.12737495 L64.1209655,3.12737495 C60.9675556,3.27850495 60.1064956,4.56437993 60.1064956,5.82167991 C60.1064956,6.7392549 61.0177206,7.78192488 61.9352956,8.00925488 C62.2769256,8.12482488 63.3189605,8.26134988 64.5781655,8.26134988 L69.0028455,8.21372488 C71.1764504,8.21372488 72.6134554,8.69759487 73.9882304,9.84122985 C75.2442604,10.8699298 75.5147704,12.5876048 75.5147704,14.1617698" id="Fill-2" fill="#8692AD"></path>
                    <g id="Group-6" transform="translate(101.599998, 0.000000)">
                        <mask id="mask-2" fill="white">
                            <use xlink:href="#path-1"></use>
                        </mask>
                        <g id="Clip-5"></g>
                        <path d="M18.2595517,19.6047992 L9.34034186,19.6047992 C6.9343269,19.6047992 5.14934192,19.0313942 3.20751195,17.3149892 C1.25869698,15.4855543 0.456691993,13.3005193 0.456691993,10.0944043 C0.456691993,6.7771644 1.41046198,4.61308443 3.35864195,2.66617446 C5.18807692,1.06406948 6.8219319,0.585914491 9.34034186,0.585914491 L18.2119267,0.585914491 L18.2119267,3.17480945 L9.34034186,3.17417445 C7.84936188,3.17417445 6.21868191,3.77107444 5.19125192,4.80167943 C3.92887194,5.94848941 3.10337195,8.28592438 3.10337195,10.3471343 C3.10337195,12.2953143 4.02983694,14.2409543 5.28904192,15.3826843 C6.31964691,16.2989893 7.84936188,16.8069892 9.34034186,16.8069892 L18.2119267,16.8069892 L18.2595517,19.6047992 Z" id="Fill-4" fill="#8692AD" mask="url(#mask-2)"></path>
                    </g>
                    <path d="M97.1208355,19.6293737 L88.2016257,19.6293737 C85.7956107,19.6293737 84.0106257,19.0559687 82.0687958,17.3395637 C80.1199808,15.5101288 79.3179758,13.3250938 79.3179758,10.1189788 C79.3179758,6.8017389 80.2717458,4.63765893 82.2199258,2.69074896 C84.0493607,1.08864398 85.6832157,0.610488991 88.2016257,0.610488991 L97.0732105,0.610488991 L97.0732105,3.19938395 L88.2016257,3.19874895 C86.7106457,3.19874895 85.0799657,3.79564894 84.0525357,4.82625393 C82.7901558,5.97306391 81.9646558,8.31049888 81.9646558,10.3717088 C81.9646558,12.3198888 82.8911208,14.2655288 84.1503257,15.4072588 C85.1809307,16.3235638 86.7106457,16.8315637 88.2016257,16.8315637 L97.0732105,16.8315637 L97.1208355,19.6293737 Z" id="Fill-7" fill="#8692AD"></path>
                    <polygon id="Fill-9" fill="#8692AD" points="80.4745648 11.5193443 80.4745648 8.67136937 92.4735246 8.67136937 92.4735246 11.5193443"></polygon>
                    <path d="M51.2959977,19.6293737 L42.3767879,19.6293737 C39.9707729,19.6293737 38.1857879,19.0559687 36.243958,17.3395637 C34.295143,15.5101288 33.493138,13.3250938 33.493138,10.1189788 C33.493138,6.8017389 34.446908,4.63765893 36.395088,2.69074896 C38.2245229,1.08864398 39.8583779,0.610488991 42.3767879,0.610488991 L51.2483727,0.610488991 L51.2483727,3.19938395 L42.3767879,3.19874895 C40.8858079,3.19874895 39.2551279,3.79564894 38.2276979,4.82625393 C36.9653179,5.97306391 36.139818,8.31049888 36.139818,10.3717088 C36.139818,12.3198888 37.0662829,14.2655288 38.3254879,15.4072588 C39.3560929,16.3235638 40.8858079,16.8315637 42.3767879,16.8315637 L51.2483727,16.8315637 L51.2959977,19.6293737 Z" id="Fill-11" fill="#8692AD"></path>
                    <polygon id="Fill-13" fill="#8692AD" points="52.5806027 19.6293737 49.7326278 19.6293737 49.7326278 11.4124738 52.5806027 11.4118388"></polygon>
                    <polygon id="Fill-15" fill="#8692AD" points="40.5815159 11.5439188 40.5815159 8.69594387 52.5804757 8.69594387 52.5804757 11.5439188"></polygon>
                    <path d="M11.9492393,8.56595937 C14.1228443,8.56595937 15.5598493,8.77804937 16.9352592,9.92104935 C18.1906542,10.9503843 18.4611642,12.6680593 18.4611642,14.2422243 C18.4611642,17.5499392 16.4482143,19.6848092 11.1891443,19.6848092 L0.000444499993,19.6346442 L0.000444499993,16.9384342 L11.2901093,16.9384342 C12.7747393,16.9384342 14.0218793,16.6710992 14.5952843,16.3281993 C15.1680543,15.9852993 15.8151193,15.3610943 15.8151193,13.7843893 C15.8151193,12.2997593 14.1228443,11.1402493 11.9492393,11.1402493" id="Fill-17" fill="#8692AD"></path>
                    <path d="M11.9492393,8.56595937 C14.1228443,8.56595937 15.8151193,7.40644939 15.8151193,5.92181941 C15.8151193,4.34511443 15.1680543,3.72090944 14.5952843,3.37800945 C14.0218793,3.03510945 12.7747393,2.76777446 11.2901093,2.76777446 L0.000444499993,2.76777446 L0.000444499993,0.0715644989 L11.1891443,0.0213994997 C16.4482143,0.0213994997 18.4611642,2.15626947 18.4611642,5.46398442 C18.4611642,7.03814939 18.1906542,8.75582437 16.9352592,9.78452435 C15.5598493,10.9281593 14.1228443,11.1402493 11.9492393,11.1402493" id="Fill-19" fill="#8692AD"></path>
                    <g id="Group-23" transform="translate(0.000000, 8.255000)">
                        <mask id="mask-4" fill="white">
                            <use xlink:href="#path-3"></use>
                        </mask>
                        <g id="Clip-22"></g>
                        <polygon id="Fill-21" fill="#8692AD" mask="url(#mask-4)" points="13.8281408 0.161607498 13.8281408 3.00958245 0.000380999994 3.00958245 -0.000253999996 0.161607498"></polygon>
                    </g>
                    <polygon id="Fill-24" fill="#8692AD" points="4.05161744 3.68598444 4.05161744 15.5217493 1.73069247 15.5217493 1.73069247 3.68598444"></polygon>
                </g>
            </g>
        </g>
    </g>
</svg>